# File created by Blade
# Date/Time:  Tue Sep 30 19:07:05 2014
#---------------------------------------------------------
:version 1.10
:name HOM
:units
  mass 1.0
  length 1.000000
  angle deg
:documentation
     Acclaim Skeleton File
:root
   axis xyz
   order TX TY TZ RX RY RZ
   position 0.000000 0.000000 0.000000
   orientation 0 0 0
:bonedata
   begin
      id 1
      name Spine_dum
      direction 0.000000 1.000000 0.000000
      length 7.508948
      axis 0.0 0.0 0.0 xyz
   end
   begin
      id 2
      name LeftUpLeg_dum
      direction 1.000000 0.000000 0.000000
      length 3.000560
      axis 0.0 0.0 0.0 xyz
   end
   begin
      id 3
      name RightUpLeg_dum
      direction -1.000000 0.000000 0.000000
      length 3.000560
      axis 0.0 0.0 0.0 xyz
   end
   begin
      id 4
      name Spine
      direction 0.000000 1.000000 0.000000
      length 0.000000
      axis 0.0 0.0 0.0 xyz
      dof rx ry rz
   end
   begin
      id 5
      name Spine_dum1
      direction 0.000000 1.000000 0.000000
      length 13.861154
      axis 0.0 0.0 0.0 xyz
   end
   begin
      id 6
      name Spine_dum2
      direction 0.000000 1.000000 0.000000
      length 8.204781
      axis 0.0 0.0 0.0 xyz
   end
   begin
      id 7
      name Spine_dum3
      direction 0.000000 1.000000 0.000000
      length 8.204781
      axis 0.0 0.0 0.0 xyz
   end
   begin
      id 8
      name Head
      direction 0.000000 1.000000 0.000000
      length 4.527550
      axis 0.0 0.0 0.0 xyz
      dof rx ry rz
   end
   begin
      id 9
      name LeftShoulder
      direction 1.000000 0.000000 0.000000
      length 6.635956
      axis 0.0 0.0 -90.0 xyz
      dof rx ry rz
   end
   begin
      id 10
      name LeftArm
      direction 1.000000 0.000000 0.000000
      length 10.274218
      axis 0.0 0.0 -90.0 xyz
      dof rx ry rz
   end
   begin
      id 11
      name LeftForeArm
      direction 1.000000 0.000000 0.000000
      length 8.522147
      axis 0.0 0.0 -90.0 xyz
      dof ry rz rx
   end
   begin
      id 12
      name LeftHand
      direction 0.000000 0.000000 0.000000
      length 0.000000
      axis 0.0 0.0 -90.0 xyz
      dof rx ry rz
   end
   begin
      id 13
      name LeftHand_dum1
      direction 0.000000 0.000000 0.000000
      length 0.000000
      axis 0.0 0.0 -90.0 xyz
   end
   begin
      id 14
      name LeftHand_dum2
      direction 1.000000 0.000000 0.000000
      length 3.937000
      axis 0.0 0.0 -90.0 xyz
   end
   begin
      id 15
      name LeftHandThumb1
      direction 0.000000 0.000000 1.000000
      length 3.937000
      axis 0.0 0.0 -90.0 xyz
      dof rx rz ry
   end
   begin
      id 16
      name RightShoulder
      direction -1.000000 0.000000 0.000000
      length 6.635956
      axis 0.0 0.0 90.0 xyz
      dof rx ry rz
   end
   begin
      id 17
      name RightArm
      direction -1.000000 0.000000 0.000000
      length 10.274218
      axis 0.0 0.0 90.0 xyz
      dof rx ry rz
   end
   begin
      id 18
      name RightForeArm
      direction -1.000000 0.000000 0.000000
      length 8.522147
      axis 0.0 0.0 90.0 xyz
      dof ry rz rx
   end
   begin
      id 19
      name RightHand
      direction 0.000000 0.000000 0.000000
      length 0.000000
      axis 0.0 0.0 90.0 xyz
      dof rx ry rz
   end
   begin
      id 20
      name RightHand_dum1
      direction 0.000000 0.000000 0.000000
      length 0.000000
      axis 0.0 0.0 90.0 xyz
   end
   begin
      id 21
      name RightHand_dum2
      direction -1.000000 0.000000 0.000000
      length 3.937000
      axis 0.0 0.0 90.0 xyz
   end
   begin
      id 22
      name RightHandThumb1
      direction 0.000000 0.000000 1.000000
      length 3.937000
      axis 0.0 0.0 90.0 xyz
      dof rx rz ry
   end
   begin
      id 23
      name LeftUpLeg
      direction 0.000000 -1.000000 0.000000
      length 16.490845
      axis 0.0 0.0 0.0 xyz
      dof rx ry rz
   end
   begin
      id 24
      name LeftLeg
      direction 0.000000 -1.000000 0.000000
      length 14.556576
      axis 0.0 0.0 0.0 xyz
      dof rx ry rz
   end
   begin
      id 25
      name LeftFoot
      direction 0.000000 -0.258819 0.965926
      length 4.831116
      axis 15.0 0.0 0.0 xyz
      dof rx ry rz
   end
   begin
      id 26
      name LeftToeBase
      direction 0.000000 0.000000 1.000000
      length 2.952750
      axis 0.0 0.0 0.0 xyz
      dof rx ry rz
   end
   begin
      id 27
      name RightUpLeg
      direction 0.000000 -1.000000 0.000000
      length 16.490845
      axis 0.0 0.0 0.0 xyz
      dof rx ry rz
   end
   begin
      id 28
      name RightLeg
      direction 0.000000 -1.000000 0.000000
      length 14.556576
      axis 0.0 0.0 0.0 xyz
      dof rx ry rz
   end
   begin
      id 29
      name RightFoot
      direction 0.000000 -0.258819 0.965926
      length 4.831116
      axis 15.0 0.0 0.0 xyz
      dof rx ry rz
   end
   begin
      id 30
      name RightToeBase
      direction 0.000000 0.000000 1.000000
      length 2.952750
      axis 0.0 0.0 0.0 xyz
      dof rx ry rz
   end
:hierarchy
   begin
      root Spine_dum LeftUpLeg_dum RightUpLeg_dum
      Spine_dum Spine
      LeftUpLeg_dum LeftUpLeg
      RightUpLeg_dum RightUpLeg
      Spine Spine_dum1 Spine_dum2 Spine_dum3
      Spine_dum1 Head
      Spine_dum2 LeftShoulder
      Spine_dum3 RightShoulder
      LeftShoulder LeftArm
      LeftArm LeftForeArm
      LeftForeArm LeftHand
      LeftHand LeftHand_dum1 LeftHand_dum2
      LeftHand_dum1 LeftHandThumb1
      RightShoulder RightArm
      RightArm RightForeArm
      RightForeArm RightHand
      RightHand RightHand_dum1 RightHand_dum2
      RightHand_dum1 RightHandThumb1
      LeftUpLeg LeftLeg
      LeftLeg LeftFoot
      LeftFoot LeftToeBase
      RightUpLeg RightLeg
      RightLeg RightFoot
      RightFoot RightToeBase
   end

# File created by Blade
# Date/Time:  Thu Sep 25 19:26:26 2014
# Frame Rate: 120.000 fps
#------------------------------------------------------
:FULLY-SPECIFIED
:DEGREES
46
root -0.924328 31.844442 -7.117888 13.244706 1.397827 0.300180
Spine -11.918325 3.874105 2.581413
Head -10.899233 -9.522067 14.874600
LeftShoulder -12.467976 18.238641 26.457788
LeftArm 19.940037 -21.770442 -35.585555
LeftForeArm 10.477061 -0.000000 14.404380
LeftHand -27.154484 0.000000 -7.867401
LeftHandThumb1 -26.253704 0.000000 33.147579
RightShoulder -19.745387 13.717750 -34.663143
RightArm -8.157610 7.085504 37.303627
RightForeArm -28.578813 -0.000000 16.040232
RightHand -11.307138 -0.000000 5.321211
RightHandThumb1 -24.326973 -0.000000 -32.862282
LeftUpLeg -7.150858 11.867565 14.589559
LeftLeg -0.975343 -0.000000 0.000000
LeftFoot -7.225740 4.539521 -34.976444
LeftToeBase 7.938566 -0.000000 -0.000000
RightUpLeg -8.105773 -14.116626 -15.091083
RightLeg 0.916855 -0.000000 -0.000000
RightFoot -3.760130 -10.668019 15.158177
RightToeBase 1.577343 -0.000000 -0.000000
47
root -0.783488 31.848714 -7.110833 13.261359 1.736708 0.696278
Spine -11.992591 3.553564 1.879464
Head -10.928521 -9.997389 15.599222
LeftShoulder -12.227517 18.101060 26.638610
LeftArm 19.974338 -21.538568 -35.452149
LeftForeArm 10.254951 0.000000 14.601622
LeftHand -27.226763 -0.000000 -7.586613
LeftHandThumb1 -26.253704 0.000000 33.147579
RightShoulder -19.891049 13.474472 -34.351661
RightArm -8.361905 7.073232 37.642311
RightForeArm -28.580958 -0.000000 15.716978
RightHand -11.330081 0.000000 5.436196
RightHandThumb1 -24.326973 -0.000000 -32.862282
LeftUpLeg -6.884127 11.407430 14.078379
LeftLeg -1.756267 -0.000000 0.000000
LeftFoot -6.896736 4.407541 -35.115616
LeftToeBase 8.081625 -0.000000 -0.000000
RightUpLeg -8.129733 -14.805852 -15.606029
RightLeg 1.245072 -0.000000 -0.000000
RightFoot -3.642850 -10.634724 15.022488
RightToeBase 1.769307 -0.000000 -0.000000
48
root -0.644202 31.855291 -7.103303 13.277633 2.060109 1.156030
Spine -12.069069 3.180078 1.106566
Head -10.884582 -10.426762 16.294166
LeftShoulder -12.070969 18.089580 26.763973
LeftArm 20.148403 -21.497008 -35.376014
LeftForeArm 10.177428 -0.000000 14.723637
LeftHand -27.238162 -0.000000 -7.653625
LeftHandThumb1 -26.253704 0.000000 33.147579
RightShoulder -19.982015 13.283111 -34.023950
RightArm -8.611520 7.039752 37.966048
RightForeArm -28.597943 -0.000000 15.441587
RightHand -11.327782 -0.000000 5.766413
RightHandThumb1 -24.326973 -0.000000 -32.862282
LeftUpLeg -6.613111 10.933252 13.505787
LeftLeg -2.502834 -0.000000 0.000000
LeftFoot -6.534225 4.288655 -35.041883
LeftToeBase 8.060721 -0.000000 -0.000000
RightUpLeg -8.128506 -15.568873 -16.179836
RightLeg 1.534445 -0.000000 -0.000000
RightFoot -3.456948 -10.477486 14.960201
RightToeBase 1.718777 -0.000000 -0.000000
49
root -0.507731 31.858178 -7.089682 13.280660 2.339577 1.591055
Spine -12.166293 2.910662 0.381822
Head -10.740499 -10.888818 16.790720
LeftShoulder -11.788772 17.822796 26.954247
LeftArm 20.113424 -21.208198 -35.254785
LeftForeArm 9.946285 -0.000000 14.810281
LeftHand -27.117120 -0.000000 -7.456377
LeftHandThumb1 -26.253704 0.000000 33.147579
RightShoulder -20.091983 13.038865 -33.787526
RightArm -8.814622 6.953294 38.327172
RightForeArm -28.401363 -0.000000 15.083742
RightHand -11.067508 -0.000000 5.879258
RightHandThumb1 -24.326973 -0.000000 -32.862282
LeftUpLeg -6.307899 10.490319 12.974846
LeftLeg -3.218201 -0.000000 0.000000
LeftFoot -6.183386 4.122412 -35.067760
LeftToeBase 7.936719 -0.000000 -0.000000
RightUpLeg -8.097330 -16.230536 -16.748273
RightLeg 1.795415 -0.000000 -0.000000
RightFoot -3.317005 -10.384342 14.833191
RightToeBase 1.854313 -0.000000 -0.000000
50
root -0.386074 31.861414 -7.079592 13.305582 2.649369 1.923807
Spine -12.279429 2.633557 -0.203196
Head -10.603282 -11.351519 17.222272
LeftShoulder -11.570298 17.687317 27.052934
LeftArm 20.201460 -20.995408 -35.146916
LeftForeArm 9.636489 -0.000000 14.906019
LeftHand -27.204900 -0.000000 -7.451054
LeftHandThumb1 -26.253704 0.000000 33.147579
RightShoulder -20.208459 12.926146 -33.581866
RightArm -9.133058 6.918969 38.604907
RightForeArm -28.335847 -0.000000 14.947638
RightHand -11.064543 0.000000 6.241752
RightHandThumb1 -24.326973 -0.000000 -32.862282
LeftUpLeg -6.118187 10.031008 12.575237
LeftLeg -3.743297 -0.000000 0.000000
LeftFoot -5.887285 3.876497 -35.005398
LeftToeBase 7.744930 -0.000000 -0.000000
RightUpLeg -8.091276 -16.993573 -17.163393
RightLeg 2.044499 -0.000000 -0.000000
RightFoot -3.123270 -10.241324 14.781694
RightToeBase 1.764603 -0.000000 -0.000000
51
root -0.268821 31.861421 -7.063643 13.329249 2.923164 2.209898
Spine -12.429415 2.396288 -0.704884
Head -10.423930 -11.872292 17.528547
LeftShoulder -11.338219 17.425174 27.188555
LeftArm 20.173941 -20.689976 -35.131826
LeftForeArm 9.512944 -0.000000 15.049256
LeftHand -27.087542 0.000000 -7.135967
LeftHandThumb1 -26.253704 0.000000 33.147579
RightShoulder -20.300990 12.735477 -33.434791
RightArm -9.369434 6.832463 38.913197
RightForeArm -28.221206 -0.000000 14.728646
RightHand -10.965201 -0.000000 6.827452
RightHandThumb1 -24.326973 -0.000000 -32.862282
LeftUpLeg -5.964336 9.672482 12.196440
LeftLeg -4.179414 -0.000000 0.000000
LeftFoot -5.782707 3.686425 -35.164412
LeftToeBase 8.059598 -0.000000 -0.000000
RightUpLeg -8.075622 -17.726402 -17.534389
RightLeg 2.275835 -0.000000 -0.000000
RightFoot -2.914687 -10.048071 14.558426
RightToeBase 1.753789 -0.000000 -0.000000
